<svg id="Layer_1" data-name="Layer 1" xmlns="http://www.w3.org/2000/svg" viewBox="0 0 61 58"><title>Artboard 9</title><path d="M28.23,36.12c-2.61-1.13-3.84-2.67-3.92-5.63v5.42c.47-4.88,3.32-10.7,8.45-12,2.74-.68,6-.1,8.77-.22a14.59,14.59,0,0,0,6.38-1.95c.79-.41-.72-5.15,0-5.52-4.31,2.24-7.9,1.86-12.66,2S27.79,20.8,25.81,25c-2.25,4.76-3.3,14.16,2.42,16.65-.64-.28.71-5.21,0-5.52Z"/><path d="M26.52,22.9c-3.95-.91-7.8-.24-10.71,2.79-2.14,2.23-2.13,5-2.13,7.84,0,2.33-.26,5.37,1.74,7.08a6.44,6.44,0,0,0,5.53.85c1.55-.67,2.51-2.29,3.28-3.7s-.77-4.13,0-5.54c-1.2,2.21-2.8,4.28-5.57,3.94s-4.87-2.09-4.94-5V36.3c.59-6.47,7.05-9.17,12.81-7.86-.37-.08.44-5.44,0-5.54Z"/></svg>