<svg id="Layer_1" data-name="Layer 1" xmlns="http://www.w3.org/2000/svg" viewBox="0 0 61 58"><defs><style>.cls-1{fill:#e6e7e8;}.cls-2{fill:#fff;}.cls-2,.cls-4{stroke:#a02727;stroke-width:2px;}.cls-2,.cls-3,.cls-4{stroke-miterlimit:10;}.cls-3{stroke:#f9f9f9;}.cls-4{fill:none;}</style></defs><title>Artboard 9</title><ellipse class="cls-1" cx="30" cy="29" rx="27" ry="26"/><circle class="cls-2" cx="27" cy="28" r="24"/><rect class="cls-3" x="28.68" y="18.06" width="3.73" height="29" rx="1.87" transform="translate(-14.07 30.94) rotate(-44.74)"/><path class="cls-3" d="M15.86,24.6c-3.69-3.72-4.33-9.08-3-10.44s4.24,1.79,7.93,5.52,6.82,6.62,5.45,8S19.56,28.33,15.86,24.6Z"/><rect x="33.09" y="10.46" width="1.43" height="12" rx="0.5" transform="translate(21.7 -19.14) rotate(45.26)"/><rect x="35.1" y="12.49" width="1.43" height="12" rx="0.5" transform="translate(23.74 -19.97) rotate(45.26)"/><rect x="37.12" y="14.52" width="1.43" height="12" rx="0.5" transform="translate(25.77 -20.79) rotate(45.26)"/><rect x="38.77" y="16.4" width="1.43" height="13" rx="0.5" transform="translate(27.96 -21.27) rotate(45.26)"/><rect x="27.56" y="19.73" width="10" height="8" rx="1.87" transform="translate(26.49 -16.1) rotate(45.26)"/><rect class="cls-3" x="20.4" y="21.43" width="3.73" height="25" rx="1.87" transform="translate(30.69 -5.77) rotate(45.26)"/><line class="cls-4" x1="47" y1="14" x2="8" y2="41"/></svg>