<svg id="Layer_1" data-name="Layer 1" xmlns="http://www.w3.org/2000/svg" viewBox="0 0 61 58"><defs><style>.cls-1{fill:#e6e7e8;}.cls-2{fill:#fff;stroke:#2f7214;stroke-width:2px;}.cls-2,.cls-3{stroke-miterlimit:10;}.cls-3{stroke:#f9f9f9;}</style></defs><title>Artboard 9</title><ellipse class="cls-1" cx="30" cy="29" rx="27" ry="26"/><circle class="cls-2" cx="28" cy="28.5" r="24"/><rect class="cls-3" x="29.06" y="19.06" width="3.73" height="29" rx="1.87" transform="translate(-14.66 31.49) rotate(-44.74)"/><path class="cls-3" d="M16.24,25.6c-3.69-3.72-4.33-9.08-3-10.44s4.24,1.79,7.93,5.52,6.82,6.62,5.45,8S19.94,29.33,16.24,25.6Z"/><rect x="33.47" y="11.46" width="1.43" height="12" rx="0.5" transform="translate(22.52 -19.11) rotate(45.26)"/><rect x="35.48" y="13.49" width="1.43" height="12" rx="0.5" transform="translate(24.56 -19.94) rotate(45.26)"/><rect x="37.5" y="15.52" width="1.43" height="12" rx="0.5" transform="translate(26.6 -20.77) rotate(45.26)"/><rect x="39.15" y="17.4" width="1.43" height="13" rx="0.5" transform="translate(28.78 -21.24) rotate(45.26)"/><rect x="27.94" y="20.73" width="10" height="8" rx="1.87" transform="translate(27.32 -16.08) rotate(45.26)"/><rect class="cls-3" x="20.78" y="22.43" width="3.73" height="25" rx="1.87" transform="translate(31.52 -5.74) rotate(45.26)"/></svg>