<svg id="Layer_1" data-name="Layer 1" xmlns="http://www.w3.org/2000/svg" viewBox="0 0 93 39"><defs><style>.cls-1{font-size:18.97px;font-family:HucklebuckJF;}.cls-2{font-size:18.69px;stroke:#000;stroke-miterlimit:10;stroke-width:0.99px;font-family:Apple-Chancery, Apple Chancery;}</style></defs><title>Artboard 1 copy</title><text class="cls-1" transform="translate(11.36 27.12) scale(1.11 1)">Holi</text><path d="M72,24c-.84,1.38-3,3-4.42,2.63A3.32,3.32,0,0,1,65.07,25a2.19,2.19,0,0,1-2.33,1.6c-2.2,0-3.21-1.76-3.21-4.33,0-4.37,1.76-6.19,4.2-6.19a2,2,0,0,1,2.11,1.65,5.6,5.6,0,0,1,2.43-.78c.44,0,.52.11.52.65S67.52,20.46,67.52,24c0,1.11,1.26,1,1.48.77,1-1,4-3.8,4-3.8A5.59,5.59,0,0,1,72,24Zm-7.78-6.65c-.66,0-1.57,2-1.57,4.78,0,1.95.29,3,.93,3,.92,0,1-1.93,1-2.41a26,26,0,0,1,.25-3.28C65.05,18,64.7,17.35,64.22,17.35Z"/><path d="M86.11,24.14a5,5,0,0,1-4.54,2.58c-2.81,0-5-1.43-5-4.85,0-3.81,2.44-5.82,4.11-5.82s3.1.93,3.1,2.42c0,2-1,4.42-2.46,4.42a1.86,1.86,0,0,1-1.17-.37c.18,2.1,1,3.12,2.07,3.12s2.49-1.15,3.23-2.43a24.7,24.7,0,0,0,1.39-3c.07-.17.13-.28.18-.28s.26.24.26,1A7.66,7.66,0,0,1,86.11,24.14ZM82,17.72c-.66,0-1.81,1-1.94,3.37a1.31,1.31,0,0,0,1,.69c.92,0,1.6-2,1.6-3.24C82.65,17.91,82.3,17.72,82,17.72Z"/><path d="M58.08,22.79A3.77,3.77,0,0,1,55.44,19v3.65c.31-3.29,2.23-7.2,5.68-8.06,1.84-.46,4-.06,5.89-.15a9.7,9.7,0,0,0,4.3-1.31c.53-.27-.49-3.46,0-3.71-2.9,1.51-5.32,1.25-8.52,1.34s-5,1.73-6.34,4.54c-1.52,3.2-2.22,9.53,1.63,11.2-.43-.19.47-3.51,0-3.71Z"/><path d="M56.92,13.9a7.25,7.25,0,0,0-7.2,1.88c-1.44,1.49-1.43,3.34-1.43,5.26,0,1.57-.17,3.62,1.17,4.76a4.29,4.29,0,0,0,3.72.58,5.19,5.19,0,0,0,2.2-2.49c.53-1-.51-2.78,0-3.73-.8,1.49-1.88,2.88-3.74,2.65a3.43,3.43,0,0,1-3.32-3.38v3.48c.4-4.35,4.74-6.17,8.61-5.28-.24-.06.3-3.67,0-3.73Z"/><text class="cls-2" transform="translate(68.73 25.84) scale(1.02 1)">z</text></svg>