<svg id="Layer_1" data-name="Layer 1" xmlns="http://www.w3.org/2000/svg" viewBox="0 0 61 58"><defs><style>.cls-1{fill:#e6e7e8;}.cls-2{fill:#fff;stroke:#2f7214;stroke-miterlimit:10;stroke-width:2px;}</style></defs><title>Artboard 9</title><ellipse class="cls-1" cx="30" cy="29" rx="27" ry="26"/><circle class="cls-2" cx="28" cy="27.5" r="24"/><path d="M23.77,18.8c1.67,2.77,1.39,6-2.31,6.87-2.27.53-3.58-1.24-4.54-4.34S16,15.6,18,14.44C19.2,13.75,22.12,16.1,23.77,18.8Z"/><path d="M32.86,15.54c.72,2.89-.43,6.11-2.73,6.25-2.89.19-3.86-1.61-4.58-4.51s-.27-5.43,2-6S32.13,12.64,32.86,15.54Z"/><path d="M20.16,28.88a3.86,3.86,0,0,1-.38,6.25c-2,1.11-4.81-.11-6.26-2.72s-1-5.64,1-6.75S17.59,26.52,20.16,28.88Z"/><path d="M42,22.24c.2,3-1.84,4.82-3.74,4.62s-3.2-2.76-2.9-5.73,2.1-5.23,4-5S41.74,18.84,42,22.24Z"/><path d="M36.63,36.93c-3.18-.78-3-.47-5.75.71S27.66,38.85,25.5,41a21.22,21.22,0,0,1-2.95,2.54c-.64.09-1.18-.47-1.47-1.05a8.18,8.18,0,0,1-.45-4.29c.16-2.31,1-2.58,2.41-4,.47-.5,1.12-3.7,1.33-4.35.38-1.2,1.87-4.55,3.05-5,3.42-1.24,3.65.11,5.51,1.88a9.59,9.59,0,0,0,3.8,2.5c2,.94,1.73-.56,3.52.73a2.83,2.83,0,0,1,.91.91,3.63,3.63,0,0,1,.33,1.82,7.41,7.41,0,0,1-.43,3.08,2.48,2.48,0,0,1-2.46,1.57"/></svg>