<svg id="Layer_1" data-name="Layer 1" xmlns="http://www.w3.org/2000/svg" xmlns:xlink="http://www.w3.org/1999/xlink" viewBox="0 0 61 58"><defs><style>.cls-1,.cls-8{fill:none;}.cls-2{fill:#e6e7e8;}.cls-3{fill:#fff;}.cls-3,.cls-8{stroke:#a02727;stroke-width:2px;}.cls-3,.cls-7,.cls-8{stroke-miterlimit:10;}.cls-4{fill:#2a99f4;}.cls-5{fill:#206299;}.cls-6{clip-path:url(#clip-path);}.cls-7{stroke:#f7f8f9;stroke-width:0.66px;}</style><clipPath id="clip-path"><rect class="cls-1" x="10.43" y="18.8" width="33.96" height="11.16" transform="translate(44.57 56.8) rotate(-159.55)"/></clipPath></defs><title>Artboard 9</title><ellipse class="cls-2" cx="30" cy="29" rx="27" ry="26"/><circle class="cls-3" cx="27.41" cy="28" r="24"/><ellipse class="cls-4" cx="15.65" cy="30.59" rx="1.82" ry="0.91" transform="translate(-18.68 29.06) rotate(-60.36)"/><ellipse class="cls-5" cx="20.66" cy="32.68" rx="1.82" ry="0.91" transform="translate(-17.96 34.47) rotate(-60.36)"/><ellipse class="cls-4" cx="19.13" cy="37.04" rx="1.82" ry="0.91" transform="translate(-20.65 49.5) rotate(-80.07)"/><ellipse class="cls-5" cx="18.13" cy="42.36" rx="1.82" ry="0.91" transform="translate(-26.8 52.61) rotate(-79.68)"/><ellipse class="cls-4" cx="25.62" cy="34.16" rx="1.82" ry="0.91" transform="translate(-16.74 39.53) rotate(-60.36)"/><ellipse class="cls-5" cx="24.1" cy="38.52" rx="1.82" ry="0.91" transform="translate(-18 55.62) rotate(-80.07)"/><ellipse class="cls-4" cx="23.29" cy="43.29" rx="1.82" ry="0.91" transform="translate(-21.09 64.44) rotate(-87.2)"/><ellipse class="cls-5" cx="30.63" cy="36.25" rx="1.82" ry="0.91" transform="translate(-16.03 44.94) rotate(-60.36)"/><ellipse class="cls-4" cx="29.1" cy="40.61" rx="1.82" ry="0.91" transform="translate(-15.92 62.28) rotate(-80.07)"/><ellipse class="cls-5" cx="28.16" cy="45.68" rx="1.82" ry="0.91" transform="translate(-18.85 71.58) rotate(-87.2)"/><ellipse class="cls-5" cx="14.21" cy="36.16" rx="1.82" ry="0.91" transform="translate(-23.86 43.92) rotate(-80.07)"/><ellipse class="cls-4" cx="14.07" cy="40.64" rx="1.82" ry="0.91" transform="translate(-28 49.58) rotate(-82.91)"/><g class="cls-6"><circle cx="25.46" cy="29.61" r="11.16"/></g><rect class="cls-7" x="12.76" y="27.57" width="25.69" height="3.64" rx="1.82" transform="translate(11.88 -7.09) rotate(20.45)"/><path d="M29.57,25.65c1.06-1.7,2-3.84,3.53-5.2,1.67-1.5,4-1.1,6.06-.89,3.42.37,3.39-5,0-5.34-3.07-.32-6.18-.33-8.78,1.58C28,17.59,26.52,20.45,25,23c-1.81,2.93,2.81,5.61,4.61,2.69Z"/><line class="cls-8" x1="46.11" y1="14.5" x2="7.11" y2="41.5"/></svg>