<svg id="Layer_1" data-name="Layer 1" xmlns="http://www.w3.org/2000/svg" xmlns:xlink="http://www.w3.org/1999/xlink" viewBox="0 0 61 58"><defs><style>.cls-1{fill:none;}.cls-2{fill:#e6e7e8;}.cls-3{fill:#fff;stroke:#2f7214;stroke-width:2px;}.cls-3,.cls-7{stroke-miterlimit:10;}.cls-4{fill:#2a99f4;}.cls-5{fill:#206299;}.cls-6{clip-path:url(#clip-path);}.cls-7{stroke:#f7f8f9;stroke-width:0.66px;}</style><clipPath id="clip-path"><rect class="cls-1" x="12.65" y="18.3" width="33.96" height="11.16" transform="translate(49.04 56.61) rotate(-159.55)"/></clipPath></defs><title>Artboard 9</title><ellipse class="cls-2" cx="30" cy="29" rx="27" ry="26"/><circle class="cls-3" cx="27.41" cy="27.5" r="24"/><ellipse class="cls-4" cx="17.87" cy="30.09" rx="1.82" ry="0.91" transform="translate(-17.12 30.74) rotate(-60.36)"/><ellipse class="cls-5" cx="22.88" cy="32.18" rx="1.82" ry="0.91" transform="translate(-16.41 36.14) rotate(-60.36)"/><ellipse class="cls-4" cx="21.35" cy="36.54" rx="1.82" ry="0.91" transform="translate(-18.32 51.27) rotate(-80.07)"/><ellipse class="cls-5" cx="20.34" cy="41.86" rx="1.82" ry="0.91" transform="translate(-24.49 54.38) rotate(-79.68)"/><ellipse class="cls-4" cx="27.84" cy="33.66" rx="1.82" ry="0.91" transform="translate(-15.19 41.21) rotate(-60.36)"/><ellipse class="cls-5" cx="26.31" cy="38.02" rx="1.82" ry="0.91" transform="translate(-15.68 57.39) rotate(-80.07)"/><ellipse class="cls-4" cx="25.5" cy="42.79" rx="1.82" ry="0.91" transform="translate(-18.48 66.18) rotate(-87.2)"/><ellipse class="cls-5" cx="32.84" cy="35.75" rx="1.82" ry="0.91" transform="translate(-14.47 46.61) rotate(-60.36)"/><ellipse class="cls-4" cx="31.32" cy="40.11" rx="1.82" ry="0.91" transform="matrix(0.17, -0.99, 0.99, 0.17, -13.59, 64.05)"/><ellipse class="cls-5" cx="30.37" cy="45.18" rx="1.82" ry="0.91" transform="translate(-16.24 73.32) rotate(-87.2)"/><ellipse class="cls-5" cx="16.43" cy="35.66" rx="1.82" ry="0.91" transform="translate(-21.53 45.69) rotate(-80.07)"/><ellipse class="cls-4" cx="16.28" cy="40.14" rx="1.82" ry="0.91" transform="translate(-25.56 51.34) rotate(-82.91)"/><g class="cls-6"><circle cx="27.67" cy="29.11" r="11.16"/></g><rect class="cls-7" x="14.98" y="27.07" width="25.69" height="3.64" rx="1.82" transform="translate(11.84 -7.9) rotate(20.45)"/><path d="M31.79,25.15c1.06-1.7,2-3.84,3.53-5.2,1.67-1.5,4-1.1,6.06-.89,3.41.37,3.39-5,0-5.34-3.08-.32-6.18-.33-8.78,1.58-2.43,1.79-3.86,4.65-5.42,7.16-1.81,2.93,2.8,5.61,4.61,2.69Z"/></svg>