<svg id="Layer_1" data-name="Layer 1" xmlns="http://www.w3.org/2000/svg" viewBox="0 0 61 58"><defs><style>.cls-1{fill:#e6e7e8;}.cls-2{fill:#fcfcfc;stroke:#2f7214;stroke-width:2px;}.cls-2,.cls-3,.cls-5{stroke-miterlimit:10;}.cls-3{fill:none;stroke:#050505;}.cls-4{fill:#050505;}.cls-5{fill:#fff;stroke:#000;stroke-width:0.75px;}</style></defs><title>Artboard 9</title><ellipse class="cls-1" cx="31" cy="29" rx="27" ry="26"/><circle class="cls-2" cx="27.75" cy="27.5" r="24"/><rect class="cls-3" x="11.75" y="26.5" width="32" height="6" rx="2.08"/><rect class="cls-4" x="33.25" y="26" width="11" height="7" rx="2.08"/><line class="cls-5" x1="17.25" y1="26.5" x2="17.25" y2="33"/><line class="cls-5" x1="19.25" y1="26.5" x2="19.25" y2="33"/><line class="cls-5" x1="15.25" y1="26.5" x2="15.25" y2="33"/><path d="M10,19.9c0,.65-.58,1.25-.71,1.89a2.4,2.4,0,0,0,0,1.19c.31,1.09,1.86,1.88,1.63,3.09-.09.47.63.67.72.19a2.49,2.49,0,0,0-.75-2.2c-.68-.82-1.13-1.49-.72-2.58.23-.63.55-.9.54-1.58a.38.38,0,0,0-.75,0Z"/><path d="M14.13,22.26a4.8,4.8,0,0,1-.37-2.51c.14-.74.74-1.15,1.13-1.76a2.86,2.86,0,0,0,.23-2.69c-.18-.44-.91-.25-.72.2.73,1.76-.9,2.32-1.33,3.71a5.42,5.42,0,0,0,.34,3.25c.17.45.89.26.72-.2Z"/><path d="M17.49,18.7A2.54,2.54,0,0,0,16,20.37c-.28,1,.62,2.67,0,3.46-.31.37.22.9.53.53,1.28-1.58-1-4,1.38-5,.44-.19.06-.84-.38-.65Z"/></svg>