<svg id="Layer_1" data-name="Layer 1" xmlns="http://www.w3.org/2000/svg" viewBox="0 0 61 58"><defs><style>.cls-1{fill:#e6e7e8;}.cls-2{fill:#fff;}.cls-2,.cls-5{stroke:#a02727;stroke-miterlimit:10;stroke-width:2px;}.cls-3{fill:#2a99f4;}.cls-4{fill:#206299;}.cls-5{fill:none;}</style></defs><title>Artboard 9</title><ellipse class="cls-1" cx="31" cy="29" rx="27" ry="26"/><circle class="cls-2" cx="27.31" cy="28" r="24"/><circle class="cls-3" cx="27.32" cy="41.45" r="2.55"/><path class="cls-4" d="M21.87,36.2c3.06-3.39,7.61-3.77,11-.5.57.55,1.44-.32.87-.88-3.8-3.71-9.18-3.39-12.71.51-.53.59.34,1.46.88.87Z"/><path class="cls-3" d="M18.33,29.4a15.56,15.56,0,0,1,19.39-.18c.83.61,1.62-.77.81-1.38a17.14,17.14,0,0,0-21.33.43c-.79.66.34,1.78,1.13,1.13Z"/><path class="cls-4" d="M13.29,22.48c9.14-4.87,21-4.12,30.1.48,1.26.64,2.37-1.26,1.11-1.9-9.81-5-22.46-5.74-32.32-.48-1.25.66-.14,2.57,1.11,1.9Z"/><line class="cls-5" x1="46.75" y1="14" x2="7.75" y2="41"/></svg>