<svg id="Layer_1" data-name="Layer 1" xmlns="http://www.w3.org/2000/svg" viewBox="0 0 61 58"><defs><style>.cls-1{fill:#e6e7e8;}.cls-2{fill:#fff;stroke:#2f7214;stroke-miterlimit:10;stroke-width:2px;}.cls-3{fill:#2a99f4;}.cls-4{fill:#206299;}</style></defs><title>Artboard 9</title><ellipse class="cls-1" cx="31" cy="29" rx="27" ry="26"/><circle class="cls-2" cx="27.76" cy="28.5" r="24"/><circle class="cls-3" cx="27.77" cy="41.95" r="2.55"/><path class="cls-4" d="M22.32,36.7c3.06-3.39,7.62-3.77,11-.5.57.55,1.45-.32.88-.88-3.81-3.71-9.19-3.39-12.72.51-.53.59.34,1.46.88.87Z"/><path class="cls-3" d="M18.78,29.9a15.56,15.56,0,0,1,19.39-.18c.83.61,1.62-.77.81-1.38a17.14,17.14,0,0,0-21.33.43c-.79.66.34,1.78,1.13,1.13Z"/><path class="cls-4" d="M13.74,23c9.14-4.87,21-4.12,30.1.48,1.26.64,2.38-1.26,1.11-1.9-9.81-5-22.46-5.74-32.32-.48-1.25.66-.14,2.57,1.11,1.9Z"/></svg>